<svg xmlns:dc="http://purl.org/dc/elements/1.1/" xmlns:cc="http://creativecommons.org/ns#" xmlns:rdf="http://www.w3.org/1999/02/22-rdf-syntax-ns#" xmlns:svg="http://www.w3.org/2000/svg" xmlns="http://www.w3.org/2000/svg" xmlns:xlink="http://www.w3.org/1999/xlink" id="svg102464" viewBox="0 0 1024 768" height="768px" width="1024px" version="1.1">
  <metadata id="metadata102470">
    <rdf:rdf>
      <cc:work rdf:about="">
        <dc:format>image/svg+xml</dc:format>
        <dc:type rdf:resource="http://purl.org/dc/dcmitype/StillImage"></dc:type>
      </cc:work>
    </rdf:rdf>
  </metadata>
  <defs id="defs102468"></defs>
  <linearGradient spreadMethod="pad" y2="30%" x2="-10%" y1="120%" x1="30%" id="3d_gradient2-logo-15e7c875-ea55-4428-8d9a-1724e3737c1c">
    <stop id="stop102445" stop-opacity="1" stop-color="#ffffff" offset="0%"></stop>
    <stop id="stop102447" stop-opacity="1" stop-color="#000000" offset="100%"></stop>
  </linearGradient>
  <linearGradient gradientTransform="rotate(-30)" spreadMethod="pad" y2="30%" x2="-10%" y1="120%" x1="30%" id="3d_gradient3-logo-15e7c875-ea55-4428-8d9a-1724e3737c1c">
    <stop id="stop102450" stop-opacity="1" stop-color="#ffffff" offset="0%"></stop>
    <stop id="stop102452" stop-opacity="1" stop-color="#cccccc" offset="50%"></stop>
    <stop id="stop102454" stop-opacity="1" stop-color="#000000" offset="100%"></stop>
  </linearGradient>
  <g id="logo-group">
    <image xlink:href="" id="container" x="272" y="144" width="480" height="480" style="display: none;" transform="translate(0 0)"></image>
    <g id="logo-center" transform="translate(-1.1368683772161603e-13 0)">
      <image xlink:href="" id="icon_container" x="0" y="0" style="display: none;"></image>
      <g id="slogan" style="font-style:normal;font-weight:400;font-size:32px;line-height:1;font-family:Montserrat;font-variant-ligatures:none;text-align:center;text-anchor:middle" transform="translate(0 0)"></g>
      <g id="title" style="font-style:normal;font-weight:800;font-size:72px;line-height:1;font-family:'Montserrat ExtraBold Alt1';font-variant-ligatures:none;text-align:center;text-anchor:middle" transform="translate(0 0)">
        <path id="path102473" style="font-style:normal;font-weight:800;font-size:72px;line-height:1;font-family:'Montserrat ExtraBold Alt1';font-variant-ligatures:none;text-align:center;text-anchor:middle" d="m 425.71587,-21.528 c -1.65599,-2.16 -3.96,-3.744 -6.768,-4.752 2.08801,-1.08 3.816,-2.592 4.96801,-4.464 1.152,-1.872 1.79999,-4.032 1.79999,-6.48 0,-4.032 -1.72799,-7.2 -5.03999,-9.576 -3.38401,-2.376 -8.28001,-3.6 -14.68801,-3.6 h -25.77599 v 10.296 h 23.904 c 4.752,0 7.19999,1.656 7.19999,4.824 0,3.312 -2.44799,4.896 -7.19999,4.896 h -23.904 v 9.864 h 26.06399 c 4.968,0 7.488,1.728 7.488,5.112 0,3.456 -2.52,5.112 -7.488,5.112 H 380.21188 V 0 h 27.21599 c 6.696,0 11.80801,-1.152 15.408,-3.6 3.528,-2.376 5.32801,-5.76 5.32801,-10.224 0,-3.024 -0.86401,-5.544 -2.44801,-7.704 z" stroke-width="0" stroke-linejoin="miter" stroke-miterlimit="2" fill="#231f20" stroke="#231f20" transform="translate(0 313.75863999999996) translate(251.39835560000017 20.192) scale(1.74) translate(-380.21188 50.4)"></path>
        <path id="path102475" style="font-style:normal;font-weight:800;font-size:72px;line-height:1;font-family:'Montserrat ExtraBold Alt1';font-variant-ligatures:none;text-align:center;text-anchor:middle" d="M 434.97012,-53.424 V 0 h 13.68 v -53.424 z" stroke-width="0" stroke-linejoin="miter" stroke-miterlimit="2" fill="#231f20" stroke="#231f20" transform="translate(0 313.75863999999996) translate(355.3776932000002 14.930240000000005) scale(1.74) translate(-434.97012 53.424)"></path>
        <path id="path102477" style="font-style:normal;font-weight:800;font-size:72px;line-height:1;font-family:'Montserrat ExtraBold Alt1';font-variant-ligatures:none;text-align:center;text-anchor:middle" d="m 465.75013,-1.944 c 3.31199,1.728 7.12799,2.592 11.30399,2.592 4.176,0 7.99201,-0.864 11.376,-2.592 3.312,-1.728 5.976,-4.104 7.848,-7.2 1.872,-3.024 2.808,-6.552 2.808,-10.44 0,-3.888 -0.936,-7.344 -2.808,-10.368 -1.872,-3.024 -4.536,-5.4 -7.848,-7.128 -3.38399,-1.728 -7.2,-2.592 -11.376,-2.592 -4.248,0 -8.064,0.864 -11.37599,2.592 -3.31201,1.728 -5.976,4.104 -7.84801,7.128 -1.872,3.096 -2.80799,6.552 -2.80799,10.368 0,3.888 0.93599,7.416 2.80799,10.44 1.87201,3.096 4.536,5.472 7.92001,7.2 z m 17.20799,-10.728 c -1.584,1.656 -3.528,2.448 -5.904,2.448 -2.44799,0 -4.392,-0.792 -5.904,-2.448 -1.584,-1.656 -2.30399,-3.96 -2.30399,-6.912 0,-2.88 0.71999,-5.112 2.30399,-6.768 1.512,-1.584 3.45601,-2.448 5.904,-2.448 2.376,0 4.32,0.864 5.904,2.448 1.512,1.656 2.304,3.888 2.304,6.768 0,2.952 -0.792,5.256 -2.304,6.912 z" stroke-width="0" stroke-linejoin="miter" stroke-miterlimit="2" fill="#231f20" stroke="#231f20" transform="translate(0 313.75863999999996) translate(398.9681906000002 38.85872) scale(1.74) translate(-455.02213 39.672)"></path>
        <path id="path102479" style="font-style:normal;font-weight:800;font-size:72px;line-height:1;font-family:'Montserrat ExtraBold Alt1';font-variant-ligatures:none;text-align:center;text-anchor:middle" d="m 547.39925,-39.024 h -13.032 v 4.752 c -2.592,-3.6 -6.696,-5.4 -12.24,-5.4 -3.456,0 -6.696,0.792 -9.576,2.376 -2.952,1.584 -5.256,3.744 -6.984,6.624 -1.728,2.88 -2.592,6.12 -2.592,9.792 0,3.744 0.864,7.056 2.592,9.936 1.728,2.88 4.032,5.04 6.984,6.624 2.88,1.584 6.12,2.304 9.576,2.304 5.04,0 8.928,-1.512 11.592,-4.608 v 1.296 c 0,3.168 -0.864,5.472 -2.52,7.056 -1.728,1.584 -4.32,2.376 -7.92,2.376 -2.376,0 -4.752,-0.36 -7.2,-1.08 -2.448,-0.72 -4.392,-1.8 -5.976,-3.096 l -4.968,9.576 c 2.304,1.728 5.184,2.952 8.568,3.816 3.312,0.864 6.912,1.296 10.8,1.296 7.344,0 13.032,-1.8 16.992,-5.4 3.888,-3.6 5.904,-9.072 5.904,-16.344 z m -15.984,23.904 c -1.584,1.512 -3.6,2.232 -6.048,2.232 -2.448,0 -4.536,-0.72 -6.12,-2.232 -1.656,-1.44 -2.448,-3.384 -2.448,-5.76 0,-2.304 0.792,-4.248 2.376,-5.688 1.584,-1.44 3.672,-2.232 6.192,-2.232 2.448,0 4.536,0.792 6.12,2.232 1.584,1.44 2.376,3.384 2.376,5.688 0,2.376 -0.864,4.32 -2.448,5.76 z" stroke-width="0" stroke-linejoin="miter" stroke-miterlimit="2" fill="#231f20" stroke="#231f20" transform="translate(0 313.75863999999996) translate(491.1066194000002 38.85872) scale(1.74) translate(-502.97525 39.672)"></path>
        <path id="path102481" style="font-style:normal;font-weight:800;font-size:72px;line-height:1;font-family:'Montserrat ExtraBold Alt1';font-variant-ligatures:none;text-align:center;text-anchor:middle" d="M 556.18888,-39.024 V 0 h 13.67999 v -39.024 z m 0.79199,-6.408 c 1.51201,1.44 3.528,2.088 6.048,2.088 2.448,0 4.46401,-0.648 6.048,-2.088 1.51201,-1.44 2.30401,-3.24 2.30401,-5.4 0,-2.016 -0.792,-3.744 -2.30401,-5.04 -1.58399,-1.296 -3.6,-2.016 -6.048,-2.016 -2.52,0 -4.53599,0.72 -6.048,2.088 -1.58399,1.44 -2.304,3.168 -2.304,5.184 0,2.088 0.72001,3.816 2.304,5.184 z" stroke-width="0" stroke-linejoin="miter" stroke-miterlimit="2" fill="#231f20" stroke="#231f20" transform="translate(0 313.75863999999996) translate(589.7674382000002 7.162880000000008) scale(1.74) translate(-554.67687 57.888)"></path>
        <path id="path102483" style="font-style:normal;font-weight:800;font-size:72px;line-height:1;font-family:'Montserrat ExtraBold Alt1';font-variant-ligatures:none;text-align:center;text-anchor:middle" d="m 593.59288,-37.584 v -0.864 c 0,-1.656 0.35999,-2.952 1.15199,-3.816 0.792,-0.864 1.94401,-1.296 3.384,-1.296 1.36801,0 2.736,0.432 4.10401,1.152 l 3.384,-9.648 c -1.08001,-0.648 -2.44801,-1.152 -4.03201,-1.512 -1.656,-0.288 -3.312,-0.504 -5.03999,-0.504 -5.18401,0 -9.144,1.44 -12.024,4.176 -2.88,2.808 -4.24801,6.552 -4.24801,11.304 v 1.008 h -5.688 v 10.224 h 5.688 V 0 h 13.68 v -27.36 h 8.92801 v -10.224 z" stroke-width="0" stroke-linejoin="miter" stroke-miterlimit="2" fill="#231f20" stroke="#231f20" transform="translate(0 313.75863999999996) translate(633.1073582000001 13.80272) scale(1.74) translate(-574.58487 54.072)"></path>
        <path id="path102485" style="font-style:normal;font-weight:800;font-size:72px;line-height:1;font-family:'Montserrat ExtraBold Alt1';font-variant-ligatures:none;text-align:center;text-anchor:middle" d="m 649.754,-39.024 h -13.032 l -9.648,23.832 -9.576,-23.832 h -14.04 l 16.704,39.528 c -0.576,1.152 -1.296,2.016 -2.16,2.52 -0.864,0.576 -1.872,0.792 -3.168,0.792 -1.152,0 -2.232,-0.144 -3.312,-0.576 -1.08,-0.432 -2.016,-1.008 -2.736,-1.728 l -4.752,9.576 c 1.296,1.08 2.952,1.944 5.04,2.592 2.088,0.648 4.176,0.936 6.264,0.936 4.032,0 7.488,-0.936 10.368,-2.88 2.808,-1.944 5.184,-5.328 7.2,-10.152 z" stroke-width="0" stroke-linejoin="miter" stroke-miterlimit="2" fill="#231f20" stroke="#231f20" transform="translate(0 313.75863999999996) translate(692.0466044000001 39.98624) scale(1.74) translate(-603.458 39.024)"></path>
      </g>
      <image xlink:href="" id="icon" x="0" y="0" style="display: none;"></image>
    </g>
  </g>
</svg>